<svg width="11" height="11" viewBox="0 0 11 11" fill="none" xmlns="http://www.w3.org/2000/svg">
<path d="M7.79132 2.5625C9.02768 2.5625 10.0413 3.57614 10.0413 4.8125C10.0413 5.34949 9.79292 5.9333 9.35089 6.53613C8.91256 7.13385 8.31724 7.70562 7.70441 8.20703C7.09404 8.70642 6.48051 9.12419 6.01886 9.41797C5.80907 9.55147 5.63088 9.65754 5.50031 9.73438C5.36965 9.65694 5.19154 9.54934 4.98175 9.41504C4.51997 9.11942 3.9067 8.69913 3.2962 8.19824C2.6832 7.69528 2.08723 7.12331 1.64874 6.52637C1.20616 5.92382 0.958313 5.34297 0.958313 4.8125C0.958313 3.57614 1.97196 2.5625 3.20831 2.5625C3.95101 2.5625 4.60219 2.90927 5.00128 3.45605L5.07843 3.56836L5.50031 4.23145L5.92218 3.56836C6.31115 2.95728 6.99913 2.56261 7.79132 2.5625Z" fill="white" stroke="#FF9401"/>
</svg>
