<svg width="19" height="14" viewBox="0 0 19 14" fill="none" xmlns="http://www.w3.org/2000/svg">
<path d="M18.8887 10.1104L14.7773 13.8984L11.9326 11.2773L13.0889 10.2119L14.7266 11.7217L14.7773 11.7686L14.8281 11.7217L17.7334 9.0459L18.8887 10.1104ZM1.68848 0.0751953H15.2002C16.0935 0.0752934 16.8135 0.747276 16.8135 1.55566V6.9248H15.2754V2.98145L15.1621 3.0459L8.44434 6.91309L1.72656 3.0459L1.61426 2.98145V10.9639H10.0586V12.3691H1.68848C0.795273 12.3689 0.0751953 11.697 0.0751953 10.8887V1.55566C0.0751953 0.747342 0.795273 0.0754021 1.68848 0.0751953ZM1.65137 1.62012L8.40723 5.50977L8.44434 5.53125L8.48145 5.50977L15.2373 1.62012L15.4805 1.48047H1.4082L1.65137 1.62012Z" fill="#3F3232" stroke="white" stroke-width="0.15"/>
</svg>
